<?xml version="1.0" encoding="UTF-8" standalone="no"?>
<!-- Uploaded to: SVG Repo, www.svgrepo.com, Generator: SVG Repo Mixer Tools -->

<svg
   fill="#000000"
   width="800px"
   height="800px"
   viewBox="0 0 32 32"
   id="icon"
   version="1.1"
   sodipodi:docname="chat-bot.svg"
   inkscape:version="1.3.2 (091e20e, 2023-11-25, custom)"
   xmlns:inkscape="http://www.inkscape.org/namespaces/inkscape"
   xmlns:sodipodi="http://sodipodi.sourceforge.net/DTD/sodipodi-0.dtd"
   xmlns="http://www.w3.org/2000/svg"
   xmlns:svg="http://www.w3.org/2000/svg">
  <sodipodi:namedview
     id="namedview4"
     pagecolor="#ffffff"
     bordercolor="#000000"
     borderopacity="0.25"
     inkscape:showpageshadow="2"
     inkscape:pageopacity="0.0"
     inkscape:pagecheckerboard="0"
     inkscape:deskcolor="#d1d1d1"
     showgrid="false"
     inkscape:zoom="1.52625"
     inkscape:cx="467.48567"
     inkscape:cy="493.69369"
     inkscape:window-width="2560"
     inkscape:window-height="1494"
     inkscape:window-x="-11"
     inkscape:window-y="-11"
     inkscape:window-maximized="1"
     inkscape:current-layer="icon" />
  <defs
     id="defs1">
    <style
       id="style1">.cls-1{fill:none;}</style>
  </defs>
  <title
     id="title1">chat-bot</title>
  <path
     d="M16,19a6.9908,6.9908,0,0,1-5.833-3.1287l1.666-1.1074a5.0007,5.0007,0,0,0,8.334,0l1.666,1.1074A6.9908,6.9908,0,0,1,16,19Z"
     id="path1"
     style="stroke-width:1.6047874;stroke-dasharray:none" />
  <path
     d="M20,8a2,2,0,1,0,2,2A1.9806,1.9806,0,0,0,20,8Z"
     id="path2"
     style="stroke-width:1.6047874;stroke-dasharray:none" />
  <path
     d="M12,8a2,2,0,1,0,2,2A1.9806,1.9806,0,0,0,12,8Z"
     id="path3"
     style="stroke-width:1.6047874;stroke-dasharray:none" />
  <path
     d="M17.7358,30,16,29l4-7h6a1.9966,1.9966,0,0,0,2-2V6a1.9966,1.9966,0,0,0-2-2H6A1.9966,1.9966,0,0,0,4,6V20a1.9966,1.9966,0,0,0,2,2h9v2H6a3.9993,3.9993,0,0,1-4-4V6A3.9988,3.9988,0,0,1,6,2H26a3.9988,3.9988,0,0,1,4,4V20a3.9993,3.9993,0,0,1-4,4H21.1646Z"
     id="path4"
     style="stroke-width:15.16573228;stroke-dasharray:none" />
  <rect
     id="_Transparent_Rectangle_"
     data-name="&lt;Transparent Rectangle&gt;"
     class="cls-1"
     width="32"
     height="32" />
</svg>
