<?xml version="1.0" encoding="UTF-8" standalone="no"?>
<svg
   xmlns:dc="http://purl.org/dc/elements/1.1/"
   xmlns:cc="http://creativecommons.org/ns#"
   xmlns:rdf="http://www.w3.org/1999/02/22-rdf-syntax-ns#"
   xmlns:svg="http://www.w3.org/2000/svg"
   xmlns="http://www.w3.org/2000/svg"
   xmlns:sodipodi="http://sodipodi.sourceforge.net/DTD/sodipodi-0.dtd"
   xmlns:inkscape="http://www.inkscape.org/namespaces/inkscape"
   width="55px"
   height="55px"
   id="smile"
   version="1.1"
   inkscape:version="0.48.0 r9654"
   sodipodi:docname="smilies.svg">
  <metadata
     id="metadata15">
    <rdf:RDF>
      <cc:Work
         rdf:about="">
        <dc:format>image/svg+xml</dc:format>
        <dc:type
           rdf:resource="http://purl.org/dc/dcmitype/StillImage" />
      </cc:Work>
    </rdf:RDF>
  </metadata>
  <defs
     id="defs13" />
  <sodipodi:namedview
     pagecolor="#31ffff"
     bordercolor="#666666"
     borderopacity="1"
     objecttolerance="10"
     gridtolerance="10"
     guidetolerance="10"
     inkscape:pageopacity="0.56470588"
     inkscape:pageshadow="2"
     inkscape:window-width="1278"
     inkscape:window-height="719"
     id="namedview11"
     showgrid="false"
     inkscape:zoom="5.1090909"
     inkscape:cx="11.653599"
     inkscape:cy="21.781502"
     inkscape:window-x="0"
     inkscape:window-y="16"
     inkscape:window-maximized="0"
     inkscape:current-layer="smile" />
  <!--circle cx="75" cy="75" r="60" fill="#ffffff" fill-opacity="0"/-->
  <circle
     style="fill:#000000;fill-opacity:0;stroke:#ffffff;stroke-width:12.35296421;stroke-opacity:1;stroke-miterlimit:4;stroke-dasharray:none"
     sodipodi:ry="65"
     sodipodi:rx="65"
     sodipodi:cy="75"
     sodipodi:cx="75"
     d="m 140,75 c 0,35.89851 -29.10149,65 -65,65 -35.898509,0 -65,-29.10149 -65,-65 0,-35.898509 29.101491,-65 65,-65 35.89851,0 65,29.101491 65,65 z"
     cx="75"
     cy="75"
     r="65"
     id="circle3"
     transform="matrix(0.32380892,0,0,0.32380892,3.3809554,3.3809554)" />
  <circle
     style="fill:#ffffff;fill-opacity:1"
     sodipodi:ry="10"
     sodipodi:rx="10"
     sodipodi:cy="50"
     sodipodi:cx="100"
     d="m 110,50 c 0,5.522847 -4.47715,10 -10,10 -5.522847,0 -10,-4.477153 -10,-10 0,-5.522847 4.477153,-10 10,-10 5.52285,0 10,4.477153 10,10 z"
     cx="100"
     cy="50"
     r="10"
     id="circle7"
     transform="matrix(0.43453027,0,0,0.43453027,-7.6911794,-1.0478985)" />
  <path
     inkscape:connector-curvature="0"
     d="m 16.009503,36.409465 c -3.561898,-4.857134 -3.561898,-5.180942 0.323809,-1.619044 2.590472,1.942853 7.447605,3.885707 11.333312,3.885707 3.885707,0 8.742841,-1.942854 11.333313,-3.885707 3.885707,-3.561898 3.885707,-3.23809 0.323809,1.619044 -2.266663,2.914281 -7.771415,5.504752 -11.657122,5.504752 -3.885707,0 -9.390458,-2.590471 -11.657121,-5.504752 z"
     id="path9"
     style="stroke:#ffffff;stroke-opacity:1;fill:#ffffff;fill-opacity:1;stroke-width:2;stroke-miterlimit:4;stroke-dasharray:none" />
  <circle
     style="fill:#ffffff;fill-opacity:1"
     sodipodi:ry="10"
     sodipodi:rx="10"
     sodipodi:cy="50"
     sodipodi:cx="100"
     d="m 110,50 c 0,5.522847 -4.47715,10 -10,10 -5.522847,0 -10,-4.477153 -10,-10 0,-5.522847 4.477153,-10 10,-10 5.52285,0 10,4.477153 10,10 z"
     cx="100"
     cy="50"
     r="10"
     id="circle7-2"
     transform="matrix(0.43453027,0,0,0.43453027,-22.705696,-1.3706419)" />
</svg>
