<?xml version="1.0" encoding="UTF-8" standalone="no"?>
<svg
   xmlns:dc="http://purl.org/dc/elements/1.1/"
   xmlns:cc="http://creativecommons.org/ns#"
   xmlns:rdf="http://www.w3.org/1999/02/22-rdf-syntax-ns#"
   xmlns:svg="http://www.w3.org/2000/svg"
   xmlns="http://www.w3.org/2000/svg"
   version="1.1"
   width="55"
   height="55">
  <circle
     cx="75"
     cy="75"
     r="65"
     transform="matrix(0.32380892,0,0,0.32380892,3.3809554,3.3809554)"
     style="fill:#000000;fill-opacity:0;stroke:#000000;stroke-width:12.3529644;stroke-miterlimit:4;stroke-opacity:1;stroke-dasharray:none" />
  <circle
     cx="100"
     cy="50"
     r="10"
     transform="matrix(0.43453027,0,0,0.43453027,-7.6911794,-1.0478985)"
     style="fill:#000000;fill-opacity:1;stroke:#000000;stroke-opacity:1" />
  <path
     d="m 16.009503,36.409465 c -3.561898,-4.857134 -3.561898,-5.180942 0.323809,-1.619044 2.590472,1.942853 7.447605,3.885707 11.333312,3.885707 3.885707,0 8.742841,-1.942854 11.333313,-3.885707 3.885707,-3.561898 3.885707,-3.23809 0.323809,1.619044 -2.266663,2.914281 -7.771415,5.504752 -11.657122,5.504752 -3.885707,0 -9.390458,-2.590471 -11.657121,-5.504752 z"
     style="fill:#000000;fill-opacity:1;stroke:#000000;stroke-width:2;stroke-miterlimit:4;stroke-opacity:1;stroke-dasharray:none" />
  <circle
     cx="100"
     cy="50"
     r="10"
     transform="matrix(0.43453027,0,0,0.43453027,-22.705696,-1.3706419)"
     style="fill:#000000;fill-opacity:1;stroke:#000000;stroke-opacity:1" />
</svg>
