<?xml version="1.0" encoding="UTF-8" standalone="no"?>
<!-- Created with Inkscape (http://www.inkscape.org/) -->

<svg
   xmlns:dc="http://purl.org/dc/elements/1.1/"
   xmlns:cc="http://creativecommons.org/ns#"
   xmlns:rdf="http://www.w3.org/1999/02/22-rdf-syntax-ns#"
   xmlns:svg="http://www.w3.org/2000/svg"
   xmlns="http://www.w3.org/2000/svg"
   version="1.1"
   width="48pt"
   height="48pt"
   viewBox="0 0 64 64"
   id="svg153"
   xml:space="preserve"
   style="overflow:visible"><metadata
     id="metadata20"><rdf:RDF><cc:Work
         rdf:about=""><dc:format>image/svg+xml</dc:format><dc:type
           rdf:resource="http://purl.org/dc/dcmitype/StillImage" /><dc:title></dc:title></cc:Work></rdf:RDF></metadata><defs
     id="defs178" /><g
     id="Layer_1"
     style="stroke:#000000"><path
       d="m 31.965,1.854 c -16.826,0 -30.52,13.695 -30.52,30.525 0,16.831 13.694,30.525 30.52,30.525 16.836,0 30.529,-13.694 30.529,-30.525 0,-16.83 -13.693,-30.525 -30.529,-30.525 z"
       id="path155"
       style="fill:#997a00;stroke:none" /><radialGradient
       cx="-224.77"
       cy="548.66107"
       r="408.80829"
       fx="-224.77"
       fy="548.66107"
       id="XMLID_1_"
       gradientUnits="userSpaceOnUse"
       gradientTransform="matrix(0.1584,0,0,0.1584,48.0479,-72.1631)"><stop
         id="stop157"
         style="stop-color:#ffff99;stop-opacity:1"
         offset="0.0056" /><stop
         id="stop158"
         style="stop-color:#fff27c;stop-opacity:1"
         offset="0.58429998" /><stop
         id="stop159"
         style="stop-color:#ffcc00;stop-opacity:1"
         offset="1" /></radialGradient><path
       d="m 3.438,32.378 c 0,15.755 12.776,28.528 28.527,28.528 15.76,0 28.533,-12.772 28.533,-28.528 C 60.498,16.624 47.725,3.853 31.965,3.853 16.214,3.854 3.438,16.624 3.438,32.378 z"
       id="path165"
       style="fill:url(#XMLID_1_);stroke:none" /><linearGradient
       x1="-103.5713"
       y1="484.0488"
       x2="-103.5713"
       y2="624.26251"
       id="XMLID_2_"
       gradientUnits="userSpaceOnUse"
       gradientTransform="matrix(0.1584,0,0,0.1584,48.0479,-72.1631)"><stop
         id="stop167"
         style="stop-color:#ffffff;stop-opacity:1"
         offset="0.0056" /><stop
         id="stop168"
         style="stop-color:#ffff99;stop-opacity:1"
         offset="1" /></linearGradient><path
       d="m 8.737,19.147 c 5.491,2.499 13.202,4.054 21.744,4.054 9.832,0 18.566,-2.061 24.076,-5.248 C 50.063,10.126 41.621,4.85 31.965,4.85 21.835,4.85 13.031,10.671 8.737,19.147 z"
       id="path172"
       style="fill:url(#XMLID_2_);stroke:none" /><path
       d="M 64,64 H 0 V 0 h 64 v 64 z"
       id="path173"
       style="fill:none;stroke:none" /><path
       d="m 15.116,38.308 c -0.002,0.123 -0.018,0.237 -0.018,0.362 0,10.875 8.473,15.743 16.871,15.743 8.398,0 16.871,-4.868 16.871,-15.743 0,-0.125 -0.016,-0.239 -0.018,-0.362 H 15.116 z"
       id="path174"
       style="opacity:0.5;stroke:none" /><path
       d="m 16.162,39.308 c 0.345,9.71 8.084,14.105 15.807,14.105 7.723,0 15.462,-4.396 15.807,-14.105 -1.903,0 -29.713,0 -31.614,0 z"
       id="path175"
       style="fill:#ffffff;stroke:none" /><path
       d="M 51.42,18.414 H 32.541 31.159 12.277 c -6.753,0 -10.284,7.982 -10.284,7.982 0,0 1.688,-3.991 6.754,-3.837 4.911,0.153 3.991,3.223 7.676,5.219 3.529,1.996 11.666,2.457 13.047,0 l 2.456,-4.298 2.455,4.298 c 1.383,2.457 9.517,1.996 13.048,0 3.532,-1.996 2.608,-5.219 7.676,-5.219 4.91,-0.153 6.754,3.837 6.754,3.837 0,0 -3.685,-7.982 -10.439,-7.982 z"
       id="path176"
       style="stroke:none" /></g></svg>