<?xml version="1.0" encoding="UTF-8" standalone="no"?>
<!-- Created with Inkscape (http://www.inkscape.org/) -->

<svg
   xmlns:dc="http://purl.org/dc/elements/1.1/"
   xmlns:cc="http://creativecommons.org/ns#"
   xmlns:rdf="http://www.w3.org/1999/02/22-rdf-syntax-ns#"
   xmlns:svg="http://www.w3.org/2000/svg"
   xmlns="http://www.w3.org/2000/svg"
   xmlns:xlink="http://www.w3.org/1999/xlink"
   xmlns:sodipodi="http://sodipodi.sourceforge.net/DTD/sodipodi-0.dtd"
   xmlns:inkscape="http://www.inkscape.org/namespaces/inkscape"
   width="52"
   height="52"
   id="svg8553"
   version="1.1"
   inkscape:version="0.48.0 r9654"
   sodipodi:docname="4.svg">
  <defs
     id="defs8555">
    <filter
       color-interpolation-filters="sRGB"
       inkscape:collect="always"
       id="filter6552-9"
       x="-0.089088194"
       width="1.1781764"
       y="-0.26488888"
       height="1.5297778">
      <feGaussianBlur
         inkscape:collect="always"
         stdDeviation="0.51736111"
         id="feGaussianBlur6554-0" />
    </filter>
    <linearGradient
       inkscape:collect="always"
       id="linearGradient5629-3">
      <stop
         style="stop-color:#000000;stop-opacity:1;"
         offset="0"
         id="stop5631-3" />
      <stop
         style="stop-color:#000000;stop-opacity:0;"
         offset="1"
         id="stop5633-3" />
    </linearGradient>
    <filter
       color-interpolation-filters="sRGB"
       inkscape:collect="always"
       id="filter5677-7"
       x="-0.094328672"
       width="1.1886573"
       y="-0.28047058"
       height="1.5609412">
      <feGaussianBlur
         inkscape:collect="always"
         stdDeviation="0.54779412"
         id="feGaussianBlur5679-3" />
    </filter>
    <linearGradient
       inkscape:collect="always"
       id="linearGradient7083-26">
      <stop
         style="stop-color:#ffed50;stop-opacity:1"
         offset="0"
         id="stop7085-5" />
      <stop
         id="stop7087-2"
         offset="0.82689852"
         style="stop-color:#e16f00;stop-opacity:1" />
      <stop
         style="stop-color:#8e5502;stop-opacity:1"
         offset="1"
         id="stop7089-6" />
    </linearGradient>
    <linearGradient
       inkscape:collect="always"
       id="linearGradient6936-5">
      <stop
         style="stop-color:#a0743c;stop-opacity:1;"
         offset="0"
         id="stop6938-87" />
      <stop
         style="stop-color:#503a1e;stop-opacity:1"
         offset="1"
         id="stop6940-9" />
    </linearGradient>
    <filter
       color-interpolation-filters="sRGB"
       inkscape:collect="always"
       id="filter5832-6"
       x="-0.43764707"
       width="1.8752941"
       y="-0.43764707"
       height="1.8752941">
      <feGaussianBlur
         inkscape:collect="always"
         stdDeviation="0.79779412"
         id="feGaussianBlur5834-0" />
    </filter>
    <linearGradient
       inkscape:collect="always"
       id="linearGradient6005-4">
      <stop
         style="stop-color:#ffffff;stop-opacity:1;"
         offset="0"
         id="stop6007-1" />
      <stop
         style="stop-color:#ffffff;stop-opacity:0;"
         offset="1"
         id="stop6009-0" />
    </linearGradient>
    <filter
       color-interpolation-filters="sRGB"
       inkscape:collect="always"
       id="filter6049-4">
      <feGaussianBlur
         inkscape:collect="always"
         stdDeviation="1.5641252"
         id="feGaussianBlur6051-8" />
    </filter>
    <linearGradient
       inkscape:collect="always"
       id="linearGradient6329-70">
      <stop
         style="stop-color:#ffffff;stop-opacity:1;"
         offset="0"
         id="stop6331-8" />
      <stop
         style="stop-color:#ffffff;stop-opacity:0;"
         offset="1"
         id="stop6333-6" />
    </linearGradient>
    <filter
       color-interpolation-filters="sRGB"
       inkscape:collect="always"
       id="filter6365-2"
       x="-0.09187445"
       width="1.1837488"
       y="-0.20844628"
       height="1.4168926">
      <feGaussianBlur
         inkscape:collect="always"
         stdDeviation="0.50811126"
         id="feGaussianBlur6367-4" />
    </filter>
    <linearGradient
       inkscape:collect="always"
       id="linearGradient7039-7">
      <stop
         style="stop-color:#ffffff;stop-opacity:1;"
         offset="0"
         id="stop7041-9" />
      <stop
         style="stop-color:#ffffff;stop-opacity:0;"
         offset="1"
         id="stop7043-3" />
    </linearGradient>
    <radialGradient
       inkscape:collect="always"
       xlink:href="#linearGradient5629-3"
       id="radialGradient16326"
       gradientUnits="userSpaceOnUse"
       gradientTransform="matrix(1,0,0,0.3363229,0,122.92545)"
       cx="314.03125"
       cy="185.21875"
       fx="314.03125"
       fy="185.21875"
       r="6.96875" />
    <radialGradient
       inkscape:collect="always"
       xlink:href="#linearGradient7083-26"
       id="radialGradient16328"
       gradientUnits="userSpaceOnUse"
       gradientTransform="matrix(1.0275204,7.1485621e-7,-8.5798813e-7,1.2332554,-8.6679086,-40.211372)"
       cx="314.96875"
       cy="174.44357"
       fx="314.96875"
       fy="174.44357"
       r="9.03125" />
    <linearGradient
       inkscape:collect="always"
       xlink:href="#linearGradient6936-5"
       id="linearGradient16330"
       gradientUnits="userSpaceOnUse"
       x1="311.25781"
       y1="171.42343"
       x2="314.96875"
       y2="185.47771" />
    <radialGradient
       inkscape:collect="always"
       xlink:href="#linearGradient6005-4"
       id="radialGradient16332"
       gradientUnits="userSpaceOnUse"
       gradientTransform="matrix(1,0,0,0.5796531,0,80.585125)"
       cx="140.19348"
       cy="273.69705"
       fx="140.19348"
       fy="273.69705"
       r="81.986084" />
    <radialGradient
       inkscape:collect="always"
       xlink:href="#linearGradient6329-70"
       id="radialGradient16334"
       gradientUnits="userSpaceOnUse"
       gradientTransform="matrix(0.1311886,0,0,0.05782245,295.51938,168.15787)"
       cx="141.57812"
       cy="30.17935"
       fx="141.57812"
       fy="30.17935"
       r="90.828125" />
    <radialGradient
       inkscape:collect="always"
       xlink:href="#linearGradient7039-7"
       id="radialGradient16336"
       gradientUnits="userSpaceOnUse"
       gradientTransform="matrix(1.7565593,-0.02542913,0.02745096,1.8962208,-242.96978,-144.69421)"
       cx="314.96875"
       cy="170.38614"
       fx="314.96875"
       fy="170.38614"
       r="8.6255913" />
    <radialGradient
       inkscape:collect="always"
       xlink:href="#linearGradient9243-6"
       id="radialGradient16338"
       gradientUnits="userSpaceOnUse"
       cx="1363"
       cy="151"
       fx="1363"
       fy="151"
       r="91" />
    <linearGradient
       inkscape:collect="always"
       id="linearGradient9243-6">
      <stop
         style="stop-color:#4e9a06;stop-opacity:1"
         offset="0"
         id="stop9245-5" />
      <stop
         style="stop-color:#4e9a06;stop-opacity:0;"
         offset="1"
         id="stop9247-5" />
    </linearGradient>
    <radialGradient
       inkscape:collect="always"
       xlink:href="#linearGradient9374"
       id="radialGradient16340"
       gradientUnits="userSpaceOnUse"
       gradientTransform="matrix(1.0963391,-0.54335263,0.16243488,0.3277498,-118.47354,655.58615)"
       cx="1325.2632"
       cy="-45.92923"
       fx="1325.2632"
       fy="-45.92923"
       r="45.87355" />
    <linearGradient
       inkscape:collect="always"
       id="linearGradient9374">
      <stop
         style="stop-color:#000000;stop-opacity:1;"
         offset="0"
         id="stop9376" />
      <stop
         style="stop-color:#000000;stop-opacity:0;"
         offset="1"
         id="stop9378" />
    </linearGradient>
    <filter
       inkscape:collect="always"
       id="filter9390"
       x="-0.10544731"
       width="1.2108946"
       y="-0.28826988"
       height="1.5765398"
       color-interpolation-filters="sRGB">
      <feGaussianBlur
         inkscape:collect="always"
         stdDeviation="4.0310353"
         id="feGaussianBlur9392" />
    </filter>
    <radialGradient
       inkscape:collect="always"
       xlink:href="#linearGradient12967"
       id="radialGradient16342"
       gradientUnits="userSpaceOnUse"
       gradientTransform="matrix(1.7107142,0,0,0.99707309,-625.73073,-9.6872855)"
       cx="1350.375"
       cy="-179.63928"
       fx="1350.375"
       fy="-179.63928"
       r="21.125" />
    <linearGradient
       inkscape:collect="always"
       id="linearGradient12967">
      <stop
         style="stop-color:#ffffff;stop-opacity:1;"
         offset="0"
         id="stop12969" />
      <stop
         style="stop-color:#ffffff;stop-opacity:0;"
         offset="1"
         id="stop12971" />
    </linearGradient>
    <filter
       inkscape:collect="always"
       id="filter12991"
       x="-0.21298511"
       width="1.4259702"
       y="-0.36542624"
       height="1.7308525"
       color-interpolation-filters="sRGB">
      <feGaussianBlur
         inkscape:collect="always"
         stdDeviation="3.7494256"
         id="feGaussianBlur12993" />
    </filter>
    <radialGradient
       inkscape:collect="always"
       xlink:href="#linearGradient12297-07-6"
       id="radialGradient16344"
       gradientUnits="userSpaceOnUse"
       gradientTransform="matrix(1,0,0,0.4923079,0,89.645816)"
       cx="142.75"
       cy="172.86737"
       fx="142.75"
       fy="172.86737"
       r="16.25" />
    <linearGradient
       inkscape:collect="always"
       id="linearGradient12297-07-6">
      <stop
         style="stop-color:#fdfcbc;stop-opacity:1;"
         offset="0"
         id="stop12299-23-7" />
      <stop
         style="stop-color:#fdfcbc;stop-opacity:0;"
         offset="1"
         id="stop12301-6-6" />
    </linearGradient>
    <filter
       color-interpolation-filters="sRGB"
       inkscape:collect="always"
       id="filter12325-0-0"
       x="-0.10702404"
       width="1.2140481"
       y="-0.081841066"
       height="1.1636821">
      <feGaussianBlur
         inkscape:collect="always"
         stdDeviation="1.4492839"
         id="feGaussianBlur12327-3-7" />
    </filter>
    <radialGradient
       inkscape:collect="always"
       xlink:href="#linearGradient6037-4-8"
       id="radialGradient16346"
       gradientUnits="userSpaceOnUse"
       gradientTransform="matrix(0.3529412,0,0,0.5490197,108.61773,48.612722)"
       cx="172.5"
       cy="101.33928"
       fx="172.5"
       fy="101.33928"
       r="8.5" />
    <linearGradient
       id="linearGradient6037-4-8"
       inkscape:collect="always">
      <stop
         id="stop6039-2-3"
         offset="0"
         style="stop-color:#b3b3b3;stop-opacity:1" />
      <stop
         id="stop6041-2-6"
         offset="1"
         style="stop-color:#000000;stop-opacity:1" />
    </linearGradient>
    <radialGradient
       inkscape:collect="always"
       xlink:href="#linearGradient5910-1-8"
       id="radialGradient16348"
       gradientUnits="userSpaceOnUse"
       gradientTransform="matrix(2.4905049,0,0,2.9334853,-261.76992,-251.79771)"
       cx="175.625"
       cy="130.62047"
       fx="175.625"
       fy="130.62047"
       r="5.625" />
    <linearGradient
       inkscape:collect="always"
       id="linearGradient5910-1-8">
      <stop
         style="stop-color:#fcfbb6;stop-opacity:1;"
         offset="0"
         id="stop5912-1-4" />
      <stop
         style="stop-color:#fcfbb6;stop-opacity:0;"
         offset="1"
         id="stop5914-0-4" />
    </linearGradient>
    <filter
       color-interpolation-filters="sRGB"
       inkscape:collect="always"
       id="filter12535-6-8"
       x="-0.18306714"
       width="1.3661343"
       y="-0.15542249"
       height="1.310845">
      <feGaussianBlur
         inkscape:collect="always"
         stdDeviation="0.85812722"
         id="feGaussianBlur12537-54-4" />
    </filter>
    <radialGradient
       inkscape:collect="always"
       xlink:href="#linearGradient5898-0-1"
       id="radialGradient16350"
       gradientUnits="userSpaceOnUse"
       gradientTransform="matrix(0.08752146,0,0,0.07111428,301.00152,167.17342)"
       cx="171.6875"
       cy="140.90654"
       fx="171.6875"
       fy="140.90654"
       r="8.5" />
    <linearGradient
       inkscape:collect="always"
       id="linearGradient5898-0-1">
      <stop
         style="stop-color:#ffffff;stop-opacity:1;"
         offset="0"
         id="stop5900-4-8" />
      <stop
         style="stop-color:#ffffff;stop-opacity:0;"
         offset="1"
         id="stop5902-6-4" />
    </linearGradient>
    <filter
       color-interpolation-filters="sRGB"
       inkscape:collect="always"
       id="filter6444-57">
      <feGaussianBlur
         inkscape:collect="always"
         stdDeviation="0.27873744"
         id="feGaussianBlur6446-1" />
    </filter>
    <radialGradient
       inkscape:collect="always"
       xlink:href="#linearGradient6450-0"
       id="radialGradient16352"
       gradientUnits="userSpaceOnUse"
       gradientTransform="matrix(0.08752146,0,0,0.1513691,301.13279,157.90553)"
       cx="172.75"
       cy="113.1875"
       fx="172.75"
       fy="113.1875"
       r="7.625" />
    <linearGradient
       inkscape:collect="always"
       id="linearGradient6450-0">
      <stop
         style="stop-color:#fefcd6;stop-opacity:1;"
         offset="0"
         id="stop6452-46" />
      <stop
         style="stop-color:#fefcd6;stop-opacity:0;"
         offset="1"
         id="stop6455-0" />
    </linearGradient>
    <radialGradient
       inkscape:collect="always"
       xlink:href="#linearGradient6450-0"
       id="radialGradient16354"
       gradientUnits="userSpaceOnUse"
       gradientTransform="matrix(1.3958357,0.8058855,-1.4396758,2.4935935,94.572706,-308.27283)"
       cx="169.49829"
       cy="110.72941"
       fx="169.49829"
       fy="110.72941"
       r="7.625" />
    <filter
       color-interpolation-filters="sRGB"
       inkscape:collect="always"
       id="filter6479-4"
       x="-0.22608136"
       width="1.4521627"
       y="-0.17770453"
       height="1.3554091">
      <feGaussianBlur
         inkscape:collect="always"
         stdDeviation="1.9984637"
         id="feGaussianBlur6481-8" />
    </filter>
    <radialGradient
       inkscape:collect="always"
       xlink:href="#linearGradient12297-07-6"
       id="radialGradient16356"
       gradientUnits="userSpaceOnUse"
       gradientTransform="matrix(1,0,0,0.4923079,0,89.645816)"
       cx="142.75"
       cy="172.86737"
       fx="142.75"
       fy="172.86737"
       r="16.25" />
    <radialGradient
       inkscape:collect="always"
       xlink:href="#linearGradient6037-4-8"
       id="radialGradient16358"
       gradientUnits="userSpaceOnUse"
       gradientTransform="matrix(0.3529412,0,0,0.5490197,108.61773,48.612722)"
       cx="172.5"
       cy="101.33928"
       fx="172.5"
       fy="101.33928"
       r="8.5" />
    <radialGradient
       inkscape:collect="always"
       xlink:href="#linearGradient5910-1-8"
       id="radialGradient16360"
       gradientUnits="userSpaceOnUse"
       gradientTransform="matrix(2.4905049,0,0,2.9334853,-261.76992,-251.79771)"
       cx="175.625"
       cy="130.62047"
       fx="175.625"
       fy="130.62047"
       r="5.625" />
    <radialGradient
       inkscape:collect="always"
       xlink:href="#linearGradient5898-0-1"
       id="radialGradient16362"
       gradientUnits="userSpaceOnUse"
       gradientTransform="matrix(0.08752146,0,0,0.07111428,301.00152,167.17342)"
       cx="171.6875"
       cy="140.90654"
       fx="171.6875"
       fy="140.90654"
       r="8.5" />
    <radialGradient
       inkscape:collect="always"
       xlink:href="#linearGradient6450-0"
       id="radialGradient16364"
       gradientUnits="userSpaceOnUse"
       gradientTransform="matrix(0.08752146,0,0,0.1513691,301.13279,157.90553)"
       cx="172.75"
       cy="113.1875"
       fx="172.75"
       fy="113.1875"
       r="7.625" />
    <radialGradient
       inkscape:collect="always"
       xlink:href="#linearGradient6450-0"
       id="radialGradient16366"
       gradientUnits="userSpaceOnUse"
       gradientTransform="matrix(1.3958357,0.8058855,-1.4396758,2.4935935,94.572706,-308.27283)"
       cx="169.49829"
       cy="110.72941"
       fx="169.49829"
       fy="110.72941"
       r="7.625" />
    <filter
       inkscape:collect="always"
       id="filter13316"
       x="-0.10186587"
       width="1.2037317"
       y="-0.28437346"
       height="1.5687469"
       color-interpolation-filters="sRGB">
      <feGaussianBlur
         inkscape:collect="always"
         stdDeviation="1.8622354"
         id="feGaussianBlur13318" />
    </filter>
    <filter
       inkscape:collect="always"
       id="filter13312"
       x="-0.047936879"
       width="1.0958738"
       y="-0.13382281"
       height="1.2676456"
       color-interpolation-filters="sRGB">
      <feGaussianBlur
         inkscape:collect="always"
         stdDeviation="0.87634607"
         id="feGaussianBlur13314" />
    </filter>
    <linearGradient
       inkscape:collect="always"
       xlink:href="#linearGradient8431"
       id="linearGradient16368"
       gradientUnits="userSpaceOnUse"
       x1="18.825819"
       y1="-140.43388"
       x2="19.23638"
       y2="-134.38734" />
    <linearGradient
       id="linearGradient8431"
       inkscape:collect="always">
      <stop
         id="stop8433"
         offset="0"
         style="stop-color:#ffffff;stop-opacity:1;" />
      <stop
         id="stop8435"
         offset="1"
         style="stop-color:#ffffff;stop-opacity:0;" />
    </linearGradient>
    <radialGradient
       inkscape:collect="always"
       xlink:href="#linearGradient3355"
       id="radialGradient16370"
       gradientUnits="userSpaceOnUse"
       gradientTransform="matrix(1.2712332,0,0,3.3426936,-4.1054338,-71.332203)"
       cx="18.729332"
       cy="13.699452"
       fx="18.729332"
       fy="13.699452"
       r="20.784536" />
    <linearGradient
       id="linearGradient3355">
      <stop
         id="stop3357"
         offset="0"
         style="stop-color:#ffffff;stop-opacity:1" />
      <stop
         id="stop3363"
         offset="0.45783132"
         style="stop-color:#ffffff;stop-opacity:1;" />
      <stop
         id="stop3359"
         offset="1"
         style="stop-color:#d3d7cf;stop-opacity:1" />
    </linearGradient>
    <linearGradient
       inkscape:collect="always"
       xlink:href="#linearGradient3377"
       id="linearGradient16372"
       gradientUnits="userSpaceOnUse"
       gradientTransform="translate(0,-36.5)"
       x1="25.75"
       y1="9.15625"
       x2="28.90625"
       y2="8.844245" />
    <linearGradient
       id="linearGradient3377"
       inkscape:collect="always">
      <stop
         id="stop3379"
         offset="0"
         style="stop-color:#000000;stop-opacity:1;" />
      <stop
         id="stop3381"
         offset="1"
         style="stop-color:#000000;stop-opacity:0;" />
    </linearGradient>
    <linearGradient
       inkscape:collect="always"
       xlink:href="#linearGradient3414"
       id="linearGradient16374"
       gradientUnits="userSpaceOnUse"
       x1="6.5"
       y1="8.4375"
       x2="14"
       y2="25.8125" />
    <linearGradient
       id="linearGradient3414"
       inkscape:collect="always">
      <stop
         id="stop3416"
         offset="0"
         style="stop-color:#ffffff;stop-opacity:1;" />
      <stop
         id="stop3418"
         offset="1"
         style="stop-color:#ffffff;stop-opacity:0;" />
    </linearGradient>
  </defs>
  <sodipodi:namedview
     id="base"
     pagecolor="#ffffff"
     bordercolor="#666666"
     borderopacity="1.0"
     inkscape:pageopacity="0.0"
     inkscape:pageshadow="2"
     inkscape:zoom="1.4"
     inkscape:cx="-92.889124"
     inkscape:cy="-55.869857"
     inkscape:document-units="px"
     inkscape:current-layer="layer1"
     showgrid="false"
     fit-margin-top="4"
     fit-margin-left="4"
     fit-margin-right="4"
     fit-margin-bottom="4"
     inkscape:window-width="1278"
     inkscape:window-height="591"
     inkscape:window-x="0"
     inkscape:window-y="176"
     inkscape:window-maximized="0" />
  <metadata
     id="metadata8558">
    <rdf:RDF>
      <cc:Work
         rdf:about="">
        <dc:format>image/svg+xml</dc:format>
        <dc:type
           rdf:resource="http://purl.org/dc/dcmitype/StillImage" />
        <dc:title />
      </cc:Work>
    </rdf:RDF>
  </metadata>
  <g
     inkscape:label="Layer 1"
     inkscape:groupmode="layer"
     id="layer1"
     transform="translate(-1.8800268,-1002.0124)">
    <g
       style="display:inline;enable-background:new"
       id="g15559"
       transform="translate(-1269.6133,1398.038)">
      <g
         style="display:inline;enable-background:new"
         id="use15451"
         transform="matrix(2.2795527,0,0,2.2795527,581.90774,-776.54816)">
        <g
           id="g14415"
           style="opacity:0.63546801"
           transform="translate(-0.11632329,0)">
          <path
             transform="matrix(0.7639183,0,0,0.7639183,74.137044,43.814179)"
             d="m 321,185.21875 c 0,1.29442 -3.12002,2.34375 -6.96875,2.34375 -3.84873,0 -6.96875,-1.04933 -6.96875,-2.34375 0,-1.29442 3.12002,-2.34375 6.96875,-2.34375 3.84873,0 6.96875,1.04933 6.96875,2.34375 z"
             sodipodi:ry="2.34375"
             sodipodi:rx="6.96875"
             sodipodi:cy="185.21875"
             sodipodi:cx="314.03125"
             id="path14417"
             style="fill:#000000;fill-opacity:1;fill-rule:nonzero;stroke:none;stroke-width:1;marker:none;visibility:visible;display:inline;overflow:visible;filter:url(#filter6552-9);enable-background:accumulate"
             sodipodi:type="arc" />
          <path
             sodipodi:type="arc"
             style="fill:url(#radialGradient16326);fill-opacity:1;fill-rule:nonzero;stroke:none;stroke-width:1;marker:none;visibility:visible;display:inline;overflow:visible;filter:url(#filter5677-7);enable-background:accumulate"
             id="path14419"
             sodipodi:cx="314.03125"
             sodipodi:cy="185.21875"
             sodipodi:rx="6.96875"
             sodipodi:ry="2.34375"
             d="m 321,185.21875 c 0,1.29442 -3.12002,2.34375 -6.96875,2.34375 -3.84873,0 -6.96875,-1.04933 -6.96875,-2.34375 0,-1.29442 3.12002,-2.34375 6.96875,-2.34375 3.84873,0 6.96875,1.04933 6.96875,2.34375 z"
             transform="matrix(1.24,0,0,1.24,-75.3675,-44.49637)" />
        </g>
        <path
           transform="matrix(1.0309551,0,0,1.0286826,-10.770248,-4.819883)"
           sodipodi:type="arc"
           style="fill:url(#radialGradient16328);fill-opacity:1;fill-rule:nonzero;stroke:url(#linearGradient16330);stroke-width:0.42598063;stroke-linecap:round;stroke-linejoin:round;stroke-miterlimit:4;stroke-opacity:1;stroke-dasharray:none;stroke-dashoffset:0;marker:none;visibility:visible;display:inline;overflow:visible;enable-background:accumulate"
           id="path14421"
           sodipodi:cx="314.96875"
           sodipodi:cy="177.84375"
           sodipodi:rx="8.53125"
           sodipodi:ry="8.53125"
           d="m 323.5,177.84375 c 0,4.71168 -3.81957,8.53125 -8.53125,8.53125 -4.71168,0 -8.53125,-3.81957 -8.53125,-8.53125 0,-4.71168 3.81957,-8.53125 8.53125,-8.53125 4.71168,0 8.53125,3.81957 8.53125,8.53125 z" />
        <path
           sodipodi:type="arc"
           style="fill:#fcffcd;fill-opacity:1;fill-rule:nonzero;stroke:none;stroke-width:1;marker:none;visibility:visible;display:inline;overflow:visible;filter:url(#filter5832-6);enable-background:accumulate"
           id="path14423"
           sodipodi:cx="314.5"
           sodipodi:cy="175.375"
           sodipodi:rx="2.1875"
           sodipodi:ry="2.1875"
           d="m 316.6875,175.375 c 0,1.20812 -0.97938,2.1875 -2.1875,2.1875 -1.20812,0 -2.1875,-0.97938 -2.1875,-2.1875 0,-1.20812 0.97938,-2.1875 2.1875,-2.1875 1.20812,0 2.1875,0.97938 2.1875,2.1875 z"
           transform="matrix(1.4,0,0,1.4,-126.35381,-72.824569)" />
        <path
           style="opacity:0.39901476;fill:url(#radialGradient16332);fill-opacity:1;fill-rule:evenodd;stroke:none;filter:url(#filter6049-4)"
           d="M 58.21875,144.1875 C 56.619587,271.15068 224.4504,267.23521 222.15625,154.40625 219.98855,261.50245 60.603201,264.86446 58.25,144.1875 l -0.03125,0 z"
           transform="matrix(0.09499408,0,0,0.08752146,300.53777,165.37297)"
           id="path14425"
           inkscape:connector-curvature="0" />
        <path
           style="fill:url(#radialGradient16334);fill-opacity:1;fill-rule:nonzero;stroke:none;stroke-width:0.08461382;marker:none;visibility:visible;display:inline;overflow:visible;filter:url(#filter6365-2);enable-background:accumulate"
           d="m 314.09395,169.63144 c -3.6633,0 -6.63773,2.03822 -6.63773,4.54847 0,0.45252 0.0987,0.88918 0.27858,1.3018 0.81756,-1.87663 3.35588,-3.24667 6.35915,-3.24667 3.00328,0 5.5416,1.37004 6.35916,3.24667 0.17987,-0.41262 0.2763,-0.84928 0.2763,-1.3018 0,-2.51026 -2.97215,-4.54847 -6.63546,-4.54847 z"
           id="path14427"
           transform="matrix(0.8944984,0,0,0.9143922,33.020988,14.521785)"
           inkscape:connector-curvature="0" />
        <g
           id="g14429"
           transform="matrix(1.9779914,0,0,2.4419903,-307.1928,-261.89377)"
           style="opacity:0.2463054" />
        <path
           transform="matrix(0.991928,0,0,0.9930811,1.496945,1.4825092)"
           d="m 314.96875,169.4375 c -4.64751,0 -8.40625,3.75874 -8.40625,8.40625 0,4.64751 3.75874,8.40625 8.40625,8.40625 4.64751,0 8.40625,-3.75874 8.40625,-8.40625 0,-4.64751 -3.75874,-8.40625 -8.40625,-8.40625 z"
           id="path14431"
           style="fill:none;stroke:url(#radialGradient16336);stroke-width:0.44199559;stroke-linecap:round;stroke-linejoin:round;stroke-miterlimit:4;stroke-opacity:1;stroke-dasharray:none;stroke-dashoffset:0;marker:none;visibility:visible;display:inline;overflow:visible;enable-background:accumulate"
           xlink:href="#path6824"
           inkscape:original="M 314.96875 169.3125 C 310.25707 169.3125 306.4375 173.13207 306.4375 177.84375 C 306.4375 182.55543 310.25707 186.375 314.96875 186.375 C 319.68043 186.375 323.5 182.55543 323.5 177.84375 C 323.5 173.13207 319.68043 169.3125 314.96875 169.3125 z "
           inkscape:radius="-0.11874371"
           sodipodi:type="inkscape:offset"
           inkscape:href="#path6824" />
      </g>
      <path
         transform="matrix(0.21703298,0,0,0.21703298,1001.184,-403.52198)"
         d="m 1454,151 c 0,50.25791 -40.7421,91 -91,91 -50.2579,0 -91,-40.74209 -91,-91 0,-50.25791 40.7421,-91 91,-91 50.2579,0 91,40.74209 91,91 z"
         sodipodi:ry="91"
         sodipodi:rx="91"
         sodipodi:cy="151"
         sodipodi:cx="1363"
         id="path9241-5"
         style="opacity:0.73134329;color:#000000;fill:url(#radialGradient16338);fill-opacity:1;fill-rule:nonzero;stroke:none;stroke-width:0.5;marker:none;visibility:visible;display:inline;overflow:visible;enable-background:accumulate"
         sodipodi:type="arc" />
      <g
         transform="matrix(0.24371662,0,0,0.24371662,887.0595,-326.04848)"
         id="g13454">
        <g
           transform="matrix(1,0,0,0.77319755,322,-67.957808)"
           id="g13326">
          <path
             inkscape:connector-curvature="0"
             style="opacity:0.5970149;color:#000000;fill:#594122;fill-opacity:1;fill-rule:evenodd;stroke:none;stroke-width:0.5;marker:none;visibility:visible;display:inline;overflow:visible;enable-background:accumulate"
             d="m 1399.6933,-97.293985 -12.092,0.287543 c -14.4602,0.343861 -24.9822,-11.840798 -40.525,-15.090828 -12.3036,-2.57271 -38.5506,-0.83319 -38.5506,-0.83319 0,0 24.9088,1.54147 37.0535,4.94974 16.1921,4.54411 34.2518,30.734879 46.3835,18.489687 l 7.7306,-7.802952 z"
             id="path13328"
             sodipodi:nodetypes="csscssc" />
          <path
             inkscape:connector-curvature="0"
             sodipodi:nodetypes="csscssc"
             id="path13330"
             d="m 1399.5165,-96.379462 -7.4562,12.024396 c -10.1791,16.41558 -31.0966,-19.668514 -46.632,-22.918544 -12.2977,-2.57271 -36.9026,-5.65685 -36.9026,-5.65685 0,0 24.8969,1.54147 37.0358,4.94974 16.1843,4.54411 33.9237,29.77241 46.3614,18.489687 l 7.5936,-6.888429 z"
             style="opacity:0.2761194;color:#000000;fill:#eeeeec;fill-opacity:1;fill-rule:evenodd;stroke:none;stroke-width:0.5;marker:none;visibility:visible;display:inline;overflow:visible;enable-background:accumulate" />
          <path
             inkscape:connector-curvature="0"
             style="opacity:0.2761194;color:#000000;fill:url(#radialGradient16340);fill-opacity:1;fill-rule:evenodd;stroke:none;stroke-width:0.5;marker:none;visibility:visible;display:inline;overflow:visible;filter:url(#filter9390);enable-background:accumulate"
             d="m 1289.7628,-87.778682 16.4402,9.231281 c 16.9427,9.513442 35.3255,-13.748931 54.9775,-20.771259 13.1362,-4.69403 29.5218,-6.71751 29.5218,-6.71751 0,0 -9.8787,-0.0495 -25.9862,3.35875 -21.4755,4.544111 -42.3977,17.349007 -61.5183,15.909911 l -13.435,-1.011173 z"
             id="path13332"
             sodipodi:nodetypes="csscssc"
             transform="matrix(-1,0,0,1,2691.4149,4.3115023)" />
        </g>
        <path
           inkscape:connector-curvature="0"
           id="path13352"
           d="m 1685.375,-185.11328 c -11.667,0 -21.125,9.45798 -21.125,21.125 0,1.19392 0.1222,2.36011 0.3125,3.5 1.6695,-9.9991 10.3394,-17.625 20.8125,-17.625 10.4731,0 19.143,7.6259 20.8125,17.625 0.1903,-1.13989 0.3125,-2.30608 0.3125,-3.5 0,-11.66702 -9.458,-21.125 -21.125,-21.125 z"
           style="opacity:0.45522389;color:#000000;fill:url(#radialGradient16342);fill-opacity:1;fill-rule:evenodd;stroke:none;stroke-width:2;marker:none;visibility:visible;display:inline;overflow:visible;filter:url(#filter12991);enable-background:accumulate" />
        <g
           style="display:inline;enable-background:new"
           id="g13354"
           transform="matrix(9.8407811,-5.8057923,4.6854097,7.9417397,-2213.9226,257.09896)">
          <path
             inkscape:connector-curvature="0"
             sodipodi:nodetypes="cscc"
             transform="matrix(0.05789881,0,0,-0.08752146,308.27153,191.2793)"
             id="path13356"
             d="m 126.5,187 c 0,0 2.21085,-41.34679 15.5,-41.5 13.73126,-0.15831 17,42.5 17,42.5 -18.75232,-25.66536 -25.88832,-10.26668 -32.5,-1 z"
             style="opacity:0.49753693;fill:url(#radialGradient16344);fill-opacity:1;fill-rule:evenodd;stroke:none;filter:url(#filter12325-0-0)" />
          <g
             transform="translate(0.5251287,-1.1815396)"
             id="g13358">
            <g
               style="display:inline;enable-background:new"
               id="g13360"
               transform="matrix(0.08752146,0,0,0.08752146,300.65143,165.15416)">
              <path
                 inkscape:connector-curvature="0"
                 id="path13362"
                 transform="translate(5.9999121,-0.4999816)"
                 d="M 164.15625,99.9375 C 162.22879,103.60496 161,109.21757 161,115.5 c 0,11.04 3.808,20 8.5,20 3.34126,0 6.23624,-4.55332 7.625,-11.15625 -2.87046,-3.65954 -5.66404,-7.95564 -8.125,-12.78125 -2.0145,-3.95016 -3.61964,-7.87597 -4.84375,-11.625 z"
                 style="fill:url(#radialGradient16346);fill-opacity:1;fill-rule:nonzero;stroke:none;stroke-width:1;marker:none;visibility:visible;display:inline;overflow:visible;enable-background:accumulate" />
              <path
                 inkscape:connector-curvature="0"
                 sodipodi:nodetypes="cscc"
                 id="path13364"
                 d="m 170,119.75 c 0,0 0.97644,13.11621 5.25,13.25 4.2253,0.13228 6,-12.75 6,-12.75 -3.02555,4.18003 -4.52118,17.53959 -11.25,-0.5 z"
                 style="opacity:0.30541873;fill:url(#radialGradient16348);fill-opacity:1;fill-rule:evenodd;stroke:none;filter:url(#filter12535-6-8)"
                 transform="matrix(1.1333333,0,0,1,-23.416667,0)" />
            </g>
            <path
               inkscape:connector-curvature="0"
               style="fill:url(#radialGradient16350);fill-opacity:1;fill-rule:evenodd;stroke:none"
               d="m 315.24563,176.29127 c 0.47539,1.16197 1.02601,1.22143 1.48787,0.0656 -0.43206,0.8599 -0.91039,1.08121 -1.48787,-0.0656 z"
               id="path13366"
               sodipodi:nodetypes="ccc" />
            <path
               inkscape:connector-curvature="0"
               sodipodi:nodetypes="ccc"
               transform="matrix(0.08752146,0,0,0.08752146,301.04527,165.13228)"
               id="path13368"
               d="M 166,99.75 181.75,127 C 174.94964,121.27607 169.56909,110.16773 166,99.75 z"
               style="fill:#b76609;fill-opacity:1;fill-rule:evenodd;stroke:none;filter:url(#filter6444-57)" />
            <path
               inkscape:connector-curvature="0"
               sodipodi:nodetypes="ccc"
               id="path13370"
               d="m 315.58477,173.88443 1.3347,2.30837 c -0.2824,-0.87122 -0.75657,-1.6105 -1.3347,-2.30837 z"
               style="fill:url(#radialGradient16352);fill-opacity:1;fill-rule:evenodd;stroke:none" />
            <path
               inkscape:connector-curvature="0"
               style="opacity:0.27179488;fill:url(#radialGradient16354);fill-opacity:1;fill-rule:evenodd;stroke:none;filter:url(#filter6479-4)"
               d="m 165.125,100 15.25,26.375 C 192.29924,104.71299 185.9062,97.019874 165.125,100 z"
               id="path13372"
               transform="matrix(0.08752146,0,0,0.08752146,301.13279,165.13228)"
               sodipodi:nodetypes="ccc" />
            <path
               inkscape:connector-curvature="0"
               style="fill:#754004;fill-opacity:1;fill-rule:evenodd;stroke:none"
               d="m 315.53582,173.87735 c 0.41622,0.97671 0.88617,1.76538 1.40554,2.3811 -0.57584,-0.4971 -1.12025,-1.52347 -1.40554,-2.3811 z"
               id="path13374"
               sodipodi:nodetypes="ccc" />
          </g>
        </g>
        <g
           transform="matrix(-9.8407811,-5.8057923,-4.6854097,7.9417397,5583.8544,257.09896)"
           id="g13376"
           style="display:inline;enable-background:new">
          <path
             inkscape:connector-curvature="0"
             style="opacity:0.49753693;fill:url(#radialGradient16356);fill-opacity:1;fill-rule:evenodd;stroke:none;filter:url(#filter12325-0-0)"
             d="m 126.5,187 c 0,0 2.21085,-41.34679 15.5,-41.5 13.73126,-0.15831 17,42.5 17,42.5 -18.75232,-25.66536 -25.88832,-10.26668 -32.5,-1 z"
             id="path13378"
             transform="matrix(0.05592596,0.01856863,0.01828087,-0.08453924,305.07324,187.92057)"
             sodipodi:nodetypes="cscc" />
          <g
             id="g13380"
             transform="translate(0.5251287,-1.1815396)">
            <g
               transform="matrix(0.08752146,0,0,0.08752146,300.65143,165.15416)"
               id="g13382"
               style="display:inline;enable-background:new">
              <path
                 inkscape:connector-curvature="0"
                 style="fill:url(#radialGradient16358);fill-opacity:1;fill-rule:nonzero;stroke:none;stroke-width:1;marker:none;visibility:visible;display:inline;overflow:visible;enable-background:accumulate"
                 d="M 164.15625,99.9375 C 162.22879,103.60496 161,109.21757 161,115.5 c 0,11.04 3.808,20 8.5,20 3.34126,0 6.23624,-4.55332 7.625,-11.15625 -2.87046,-3.65954 -5.66404,-7.95564 -8.125,-12.78125 -2.0145,-3.95016 -3.61964,-7.87597 -4.84375,-11.625 z"
                 transform="translate(5.9999121,-0.4999816)"
                 id="path13384" />
              <path
                 inkscape:connector-curvature="0"
                 transform="matrix(1.1333333,0,0,1,-23.416667,0)"
                 style="opacity:0.30541873;fill:url(#radialGradient16360);fill-opacity:1;fill-rule:evenodd;stroke:none;filter:url(#filter12535-6-8)"
                 d="m 170,119.75 c 0,0 0.97644,13.11621 5.25,13.25 4.2253,0.13228 6,-12.75 6,-12.75 -3.02555,4.18003 -4.52118,17.53959 -11.25,-0.5 z"
                 id="path13386"
                 sodipodi:nodetypes="cscc" />
            </g>
            <path
               inkscape:connector-curvature="0"
               sodipodi:nodetypes="ccc"
               id="path13388"
               d="m 315.24563,176.29127 c 0.47539,1.16197 1.02601,1.22143 1.48787,0.0656 -0.43206,0.8599 -0.91039,1.08121 -1.48787,-0.0656 z"
               style="fill:url(#radialGradient16362);fill-opacity:1;fill-rule:evenodd;stroke:none" />
            <path
               inkscape:connector-curvature="0"
               style="fill:#b76609;fill-opacity:1;fill-rule:evenodd;stroke:none;filter:url(#filter6444-57)"
               d="M 166,99.75 181.75,127 C 174.94964,121.27607 169.56909,110.16773 166,99.75 z"
               id="path13390"
               transform="matrix(0.08752146,0,0,0.08752146,301.04527,165.13228)"
               sodipodi:nodetypes="ccc" />
            <path
               inkscape:connector-curvature="0"
               style="fill:url(#radialGradient16364);fill-opacity:1;fill-rule:evenodd;stroke:none"
               d="m 315.58477,173.88443 1.3347,2.30837 c -0.2824,-0.87122 -0.75657,-1.6105 -1.3347,-2.30837 z"
               id="path13392"
               sodipodi:nodetypes="ccc" />
            <path
               inkscape:connector-curvature="0"
               sodipodi:nodetypes="ccc"
               transform="matrix(0.08752146,0,0,0.08752146,301.13279,165.13228)"
               id="path13394"
               d="m 165.125,100 15.25,26.375 C 192.29924,104.71299 185.9062,97.019874 165.125,100 z"
               style="opacity:0.27179488;fill:url(#radialGradient16366);fill-opacity:1;fill-rule:evenodd;stroke:none;filter:url(#filter6479-4)" />
            <path
               inkscape:connector-curvature="0"
               sodipodi:nodetypes="ccc"
               id="path13396"
               d="m 315.53582,173.87735 c 0.41622,0.97671 0.88617,1.76538 1.40554,2.3811 -0.57584,-0.4971 -1.12025,-1.52347 -1.40554,-2.3811 z"
               style="fill:#754004;fill-opacity:1;fill-rule:evenodd;stroke:none" />
          </g>
        </g>
        <path
           inkscape:connector-curvature="0"
           sodipodi:nodetypes="ccc"
           id="path13398"
           d="m 1631.5,-182.61328 c 13.6599,21.42564 24.404,10.77772 35.5,4 -12.868,5.3923 -25.2719,7.76738 -35.5,-4 z"
           style="opacity:0.20895523;color:#000000;fill:#c87903;fill-opacity:1;fill-rule:evenodd;stroke:none;stroke-width:2;marker:none;visibility:visible;display:inline;overflow:visible;enable-background:accumulate" />
        <path
           inkscape:connector-curvature="0"
           style="opacity:0.20895523;color:#000000;fill:#c87903;fill-opacity:1;fill-rule:evenodd;stroke:none;stroke-width:2;marker:none;visibility:visible;display:inline;overflow:visible;filter:url(#filter13316);enable-background:accumulate"
           d="m 1627.3125,-174.61328 c 16.8825,26.48023 30.1613,13.32033 43.875,4.94365 -15.9038,6.66442 -31.2339,9.59981 -43.875,-4.94365 z"
           id="path13400"
           sodipodi:nodetypes="ccc" />
        <path
           inkscape:connector-curvature="0"
           style="opacity:0.2238806;color:#000000;fill:#c87903;fill-opacity:1;fill-rule:evenodd;stroke:none;stroke-width:2;marker:none;visibility:visible;display:inline;overflow:visible;enable-background:accumulate"
           d="m 1743.5,-185.11328 c -13.6599,21.42564 -24.404,10.77772 -35.5,4 10.9749,7.91649 23.1674,10.57343 35.5,-4 z"
           id="path13402"
           sodipodi:nodetypes="ccc" />
        <path
           inkscape:connector-curvature="0"
           sodipodi:nodetypes="ccc"
           id="path13404"
           d="m 1749.6875,-178.61328 c -16.8825,26.48023 -30.1613,13.32033 -43.875,4.94365 15.9038,9.31371 31.2339,12.2838 43.875,-4.94365 z"
           style="opacity:0.2238806;color:#000000;fill:#c87903;fill-opacity:1;fill-rule:evenodd;stroke:none;stroke-width:2;marker:none;visibility:visible;display:inline;overflow:visible;filter:url(#filter13312);enable-background:accumulate" />
        <path
           inkscape:connector-curvature="0"
           sodipodi:nodetypes="ccc"
           id="path13406"
           d="m 1627.3125,-174.61328 c 16.8825,9.02745 30.1613,6.46555 43.875,4.94365 -15.9038,6.66442 -31.2339,9.59981 -43.875,-4.94365 z"
           style="opacity:0.20895523;color:#000000;fill:#fdc878;fill-opacity:1;fill-rule:evenodd;stroke:none;stroke-width:2;marker:none;visibility:visible;display:inline;overflow:visible;filter:url(#filter13316);enable-background:accumulate" />
        <path
           inkscape:connector-curvature="0"
           style="opacity:0.2238806;color:#000000;fill:#fedeaf;fill-opacity:1;fill-rule:evenodd;stroke:none;stroke-width:2;marker:none;visibility:visible;display:inline;overflow:visible;filter:url(#filter13312);enable-background:accumulate"
           d="m 1749.6875,-178.61328 c -20.6777,13.19719 -31.4172,8.92453 -43.875,4.94365 15.9038,9.31371 31.2339,12.2838 43.875,-4.94365 z"
           id="path13408"
           sodipodi:nodetypes="ccc" />
      </g>
      <g
         id="g10116"
         style="display:inline;enable-background:new"
         transform="matrix(0.99496672,0.1002059,-0.1002059,0.99496672,1272.2891,-360.2128)">
        <path
           d="m 25.6875,-135.96875 c 0,3.29645 -2.742256,5.96875 -6.125,5.96875 -3.382744,0 -6.125,-2.6723 -6.125,-5.96875 0,-3.29645 2.742256,-5.96875 6.125,-5.96875 3.382744,0 6.125,2.6723 6.125,5.96875 z"
           id="path10854"
           inkscape:transform-center-x="1.9734894"
           inkscape:transform-center-y="-7.3651901"
           sodipodi:cx="19.5625"
           sodipodi:cy="-135.96875"
           sodipodi:rx="6.125"
           sodipodi:ry="5.96875"
           sodipodi:type="arc"
           style="fill:url(#linearGradient16368);fill-opacity:1;fill-rule:evenodd;stroke:none;display:inline"
           transform="matrix(2.2078305,-0.5915864,0.4553048,1.6992208,40.743051,221.87364)" />
        <path
           inkscape:connector-curvature="0"
           d="M 28.78125,-30.875 C 21.564052,-30.883807 14.332116,-29.265484 7.25,-25.28125 4.8995897,-21.945726 3.5,-17.887676 3.5,-13.5 c 0,0.931996 0.066844,1.850868 0.1875,2.75 10.723304,-12.636293 24.435499,-12.546643 38.71875,-11.71875 -0.741651,-1.518566 -1.641268,-2.938776 -2.71875,-4.21875 -0.07252,-0.0245 -0.149298,-0.04984 -0.21875,-0.0625 -0.01927,-0.08856 -0.04154,-0.166208 -0.0625,-0.25 -1.127456,-1.28527 -2.399401,-2.435499 -3.8125,-3.40625 -2.262091,-0.29537 -4.541396,-0.465979 -6.8125,-0.46875 z"
           id="path3426"
           style="opacity:0.05791506;fill:#000000;fill-opacity:1;stroke:#000000;stroke-width:1;stroke-linecap:round;stroke-linejoin:round;stroke-miterlimit:4;stroke-opacity:1;stroke-dasharray:none;stroke-dashoffset:0;display:inline" />
        <path
           inkscape:connector-curvature="0"
           d="m 36.3125,-31.3125 c -10,-1.431037 -20.15175,-0.29081 -29.9912864,5.550994 -2.3644853,2.104957 -3.4561976,4.648405 -2.700101,6.32462 -1.6662277,1.348003 -1.3269832,5.263759 -0.6107488,8.479043 10.9656252,-13.628811 25.1832872,-13.349763 39.9780842,-12.474753 -0.101817,-1.403816 -2.151306,-4.079333 -3.529744,-4.330643 -0.503438,-2.313809 -1.586705,-2.969004 -3.146204,-3.549261 z"
           id="path2378"
           sodipodi:nodetypes="ccccccc"
           style="fill:url(#radialGradient16370);fill-opacity:1;stroke:#d3d7cf;stroke-width:1;stroke-linecap:round;stroke-linejoin:round;stroke-miterlimit:4;stroke-opacity:1;stroke-dasharray:none;stroke-dashoffset:0;display:inline" />
        <path
           inkscape:connector-curvature="0"
           d="m 2.9732195,-16.73991 c 5.2779084,-5.402289 12.9062325,-10.734616 23.7223935,-12.375672 -9.398134,0.883017 -18.39796,5.883379 -22.5030772,9.742344 -0.7156438,0.801169 -1.1136538,1.433155 -1.2193163,2.633328 z"
           id="path2380"
           sodipodi:nodetypes="cccc"
           style="opacity:0.10424709;fill:#000000;fill-rule:evenodd;stroke:none;display:inline" />
        <path
           inkscape:connector-curvature="0"
           d="m 40.935549,-25.978958 c -5.498879,-1.866754 -7.702702,-2.150452 -14.320416,-1.758575 5.906794,-0.973139 8.034648,-0.49152 12.493318,0.318047 0.892421,0.403421 1.555597,0.726048 1.827098,1.440528 z"
           id="path2382"
           sodipodi:nodetypes="cccc"
           style="opacity:0.10424709;fill:#000000;fill-rule:evenodd;stroke:none;display:inline" />
        <path
           inkscape:connector-curvature="0"
           d="m 24.96875,-31.1875 c 2.283158,1.769231 1.634976,4.952746 2.09375,7.1875 4.439504,-0.497569 10.645562,-0.23062 15.21875,0.03125 -0.189539,-0.519434 -0.492203,-1.154994 -0.96875,-1.75 -0.657251,-0.82063 -1.514215,-1.454079 -1.9375,-1.53125 -0.206637,-0.03792 -0.36833,-0.199613 -0.40625,-0.40625 -0.237699,-1.092464 -0.578703,-1.705687 -1.03125,-2.15625 -0.426838,-0.424967 -0.992303,-0.733803 -1.6875,-1 -0.02042,-0.0029 -0.04208,0.0029 -0.0625,0 -3.461193,-0.385393 -7.362692,-0.745508 -11.21875,-0.375 z"
           id="path3369"
           sodipodi:nodetypes="cccssssscc"
           style="opacity:0.06949804;fill:url(#linearGradient16372);fill-opacity:1;stroke:none;display:inline" />
        <path
           d="M 28.78125,5.5625 C 21.425138,5.5535233 14.076602,7.2485787 6.875,11.5 c -1.0562845,0.957203 -1.8257349,2.014719 -2.21875,2.9375 -0.4023653,0.944735 -0.4249154,1.723666 -0.1875,2.25 a 0.93207536,0.93207536 0 0 1 -0.25,1.09375 C 3.7508253,18.159808 3.3782981,19.200015 3.34375,20.625 3.3229255,21.483935 3.5436688,22.49373 3.6875,23.46875 8.9798442,17.563809 14.987989,14.372198 21.375,12.9375 27.836363,11.4861 34.64665,11.679704 41.53125,12.0625 41.341672,11.684615 41.304091,11.442181 41,11.0625 40.376897,10.284506 39.511727,9.6925719 39.3125,9.65625 A 0.93207536,0.93207536 0 0 1 38.5625,8.9375 C 38.336614,7.8993297 38.011283,7.3533396 37.625,6.96875 37.262036,6.6073768 36.761632,6.3814167 36.09375,6.125 33.662682,5.7810011 31.212848,5.5654673 28.78125,5.5625 z"
           id="path3412"
           inkscape:original="M 28.78125 4.625 C 21.246092 4.6158048 13.692152 6.3686474 6.3125 10.75 C 3.9480146 12.854957 2.8689034 15.386285 3.625 17.0625 C 1.9587723 18.410503 2.2837656 22.315966 3 25.53125 C 13.965625 11.90244 28.205203 12.18749 43 13.0625 C 42.898182 11.658684 40.847188 9.0013095 39.46875 8.75 C 38.96531 6.4361906 37.871999 5.7677566 36.3125 5.1875 C 33.8125 4.8297408 31.292969 4.6280651 28.78125 4.625 z "
           inkscape:radius="-0.93198216"
           sodipodi:type="inkscape:offset"
           style="fill:none;stroke:url(#linearGradient16374);stroke-width:1;stroke-linecap:round;stroke-linejoin:round;stroke-miterlimit:4;stroke-opacity:1;stroke-dasharray:none;stroke-dashoffset:0;display:inline"
           transform="translate(0,-36.5)" />
      </g>
    </g>
  </g>
</svg>
