<?xml version="1.0" encoding="UTF-8" standalone="no"?>
<!-- Created with Inkscape (http://www.inkscape.org/) -->

<svg
   xmlns:dc="http://purl.org/dc/elements/1.1/"
   xmlns:cc="http://creativecommons.org/ns#"
   xmlns:rdf="http://www.w3.org/1999/02/22-rdf-syntax-ns#"
   xmlns:svg="http://www.w3.org/2000/svg"
   xmlns="http://www.w3.org/2000/svg"
   version="1.1"
   width="48"
   height="48"
   viewBox="0 0 48 48"
   id="svg2">
  <metadata
     id="metadata45">
    <rdf:RDF>
      <cc:Work
         rdf:about="">
        <dc:format>image/svg+xml</dc:format>
        <dc:type
           rdf:resource="http://purl.org/dc/dcmitype/StillImage" />
        <dc:title></dc:title>
      </cc:Work>
    </rdf:RDF>
  </metadata>
  <defs
     id="defs4">
    <radialGradient
       cx="29.288"
       cy="15.721"
       r="8.9020996"
       fx="29.158001"
       fy="15.756"
       id="rad1"
       gradientUnits="userSpaceOnUse">
      <stop
         id="stop7"
         style="stop-color:#fffcde;stop-opacity:1"
         offset="0" />
      <stop
         id="stop9"
         style="stop-color:#f6e76a;stop-opacity:1"
         offset="0.64486003" />
      <stop
         id="stop11"
         style="stop-color:#ffb738;stop-opacity:1"
         offset="1" />
    </radialGradient>
    <radialGradient
       cx="25.052999"
       cy="39.592999"
       r="15.757"
       id="rad2"
       gradientUnits="userSpaceOnUse"
       gradientTransform="matrix(1.25,0,0,1.25,-6.47945,-13.3721)">
      <stop
         id="stop14"
         style="stop-color:#777777;stop-opacity:1"
         offset="0" />
      <stop
         id="stop16"
         style="stop-color:#000000;stop-opacity:1"
         offset="1" />
    </radialGradient>
    <radialGradient
       cx="24.714001"
       cy="38.570999"
       r="19.714001"
       id="rad3"
       gradientUnits="userSpaceOnUse"
       gradientTransform="matrix(1,0,0,0.333333,0,25.7143)">
      <stop
         id="stop19"
         style="stop-color:#000000;stop-opacity:1"
         offset="0" />
      <stop
         id="stop21"
         style="stop-color:#000000;stop-opacity:0"
         offset="1" />
    </radialGradient>
  </defs>
  <path
     d="m 44.429,38.571 a 19.7145,6.5715667 0 1 1 -39.429,0 19.7145,6.5715667 0 1 1 39.429,0 z"
     id="path23"
     style="opacity:0.53164601;fill:url(#rad3)" />
  <path
     d="m 39.775,19.009 a 8.6621,8.6621 0 1 1 -17.324,0 8.6621,8.6621 0 1 1 17.324,0 z"
     transform="matrix(2.08314,0,0,2.08314,-40.5471,-16.4922)"
     id="path25"
     style="fill:url(#rad1);stroke:#9c8c0a;stroke-width:0.47999999" />
  <path
     d="m 39.775,19.009 a 8.6621,8.6621 0 1 1 -17.324,0 8.6621,8.6621 0 1 1 17.324,0 z"
     transform="matrix(1.97978,0,0,1.97978,-37.3313,-14.5275)"
     id="path27"
     style="opacity:0.67721498;fill:none;stroke:#ffffff;stroke-width:0.50510597" />
  <path
     d="m 37.285,24.72 c -3.017,5.225 -6.544,8.99 -12.823,8.99 -6.1,0 -10.565,-4.34 -13.352,-9.167 2.549,3.056 6.283,6.567 13.087,6.567 8.131,0 9.552,-2.907 13.088,-6.39 z"
     id="path29"
     style="opacity:0.36000001;fill:#ffffff" />
  <path
     d="m 37.285,24.013 c -3.017,5.225 -6.544,8.99 -12.823,8.99 -6.1,0 -10.565,-4.34 -13.352,-9.167 2.549,3.056 6.283,6.566 13.087,6.566 8.131,0 9.552,-2.906 13.088,-6.389 z"
     id="path31"
     style="fill:url(#rad2)" />
  <g
     transform="translate(0.353553,2.39271)"
     id="g33">
    <path
       d="m 21.398,15.321 c 0,2.5 -1.125,4.5 -2.5,4.5 -1.375,0 -2.625,-2 -2.625,-4.5 0,-2.5 1.125,-4.5 2.5,-4.5 1.375,0 2.5,2 2.5,4.5 h 0.125 z"
       id="path35"
       style="opacity:0.36000001;fill:#ffffff" />
    <path
       d="m 30.689,15.321 c 0,2.5 -1.125,4.5 -2.5,4.5 -1.375,0 -2.5,-2 -2.5,-4.5 0,-2.5 1.125,-4.5 2.5,-4.5 1.375,0 2.5,2 2.5,4.5 z"
       id="path37"
       style="opacity:0.36000001;fill:#ffffff" />
    <path
       d="m 21.398,14.696 c 0,2.5 -1.125,4.5 -2.5,4.5 -1.375,0 -2.5,-2 -2.5,-4.5 0,-2.5 1.125,-4.5 2.5,-4.5 1.375,0 2.5,2 2.5,4.5 z"
       id="path39" />
    <path
       d="m 30.689,14.696 c 0,2.5 -1.125,4.5 -2.5,4.5 -1.375,0 -2.5,-2 -2.5,-4.5 0,-2.5 1.125,-4.5 2.5,-4.5 1.375,0 2.5,2 2.5,4.5 z"
       id="path41" />
  </g>
</svg>
